<?xml version="1.0" encoding="UTF-8" standalone="no"?>
<!DOCTYPE svg PUBLIC "-//W3C//DTD SVG 1.1//EN"
 "http://www.w3.org/Graphics/SVG/1.1/DTD/svg11.dtd">
<!-- Generated by graphviz version 2.38.0 (20140413.2041)
 -->
<!-- Title: Lifecycle Pages: 1 -->
<svg width="488pt" height="1124pt"
 viewBox="0.00 0.00 487.63 1124.00" xmlns="http://www.w3.org/2000/svg" xmlns:xlink="http://www.w3.org/1999/xlink">
<g id="graph0" class="graph" transform="scale(1 1) rotate(0) translate(4 1120)">
<title>Lifecycle</title>
<polygon fill="white" stroke="none" points="-4,4 -4,-1120 483.633,-1120 483.633,4 -4,4"/>
<!-- New -->
<g id="node1" class="node"><title>New</title>
<polygon fill="none" stroke="black" points="180.042,-1044 126.042,-1044 126.042,-1008 180.042,-1008 180.042,-1044"/>
<text text-anchor="middle" x="153.042" y="-1022.3" font-family="Times,serif" font-size="14.00">New</text>
</g>
<!-- mark_candidate -->
<g id="node11" class="node"><title>mark_candidate</title>
<ellipse fill="none" stroke="black" cx="153.042" cy="-954" rx="69.5877" ry="18"/>
<text text-anchor="middle" x="153.042" y="-950.3" font-family="Times,serif" font-size="14.00">mark_candidate</text>
</g>
<!-- New&#45;&gt;mark_candidate -->
<g id="edge2" class="edge"><title>New&#45;&gt;mark_candidate</title>
<path fill="none" stroke="black" d="M153.042,-1007.7C153.042,-999.983 153.042,-990.712 153.042,-982.112"/>
<polygon fill="black" stroke="black" points="156.542,-982.104 153.042,-972.104 149.542,-982.104 156.542,-982.104"/>
</g>
<!-- Candidate -->
<g id="node2" class="node"><title>Candidate</title>
<polygon fill="none" stroke="black" points="190.042,-900 116.042,-900 116.042,-864 190.042,-864 190.042,-900"/>
<text text-anchor="middle" x="153.042" y="-878.3" font-family="Times,serif" font-size="14.00">Candidate</text>
</g>
<!-- accept -->
<g id="node12" class="node"><title>accept</title>
<ellipse fill="blue" stroke="blue" cx="111.042" cy="-810" rx="34.394" ry="18"/>
<text text-anchor="middle" x="111.042" y="-806.3" font-family="Times,serif" font-size="14.00">accept</text>
</g>
<!-- Candidate&#45;&gt;accept -->
<g id="edge4" class="edge"><title>Candidate&#45;&gt;accept</title>
<path fill="none" stroke="black" d="M142.66,-863.697C137.705,-855.437 131.679,-845.394 126.222,-836.299"/>
<polygon fill="black" stroke="black" points="129.162,-834.396 121.015,-827.622 123.159,-837.998 129.162,-834.396"/>
</g>
<!-- reject -->
<g id="node17" class="node"><title>reject</title>
<ellipse fill="blue" stroke="blue" cx="239.042" cy="-810" rx="32.4942" ry="18"/>
<text text-anchor="middle" x="239.042" y="-806.3" font-family="Times,serif" font-size="14.00">reject</text>
</g>
<!-- Candidate&#45;&gt;reject -->
<g id="edge19" class="edge"><title>Candidate&#45;&gt;reject</title>
<path fill="none" stroke="black" d="M174.301,-863.697C186.215,-853.999 201.151,-841.841 213.674,-831.648"/>
<polygon fill="black" stroke="black" points="215.953,-834.306 221.499,-825.279 211.534,-828.877 215.953,-834.306"/>
</g>
<!-- DataResource -->
<g id="node3" class="node"><title>DataResource</title>
<polygon fill="none" stroke="black" points="136.542,-684 41.5421,-684 41.5421,-648 136.542,-648 136.542,-684"/>
<text text-anchor="middle" x="89.0421" y="-662.3" font-family="Times,serif" font-size="14.00">DataResource</text>
</g>
<!-- mark_accepted -->
<g id="node14" class="node"><title>mark_accepted</title>
<ellipse fill="none" stroke="black" cx="89.0421" cy="-594" rx="67.6881" ry="18"/>
<text text-anchor="middle" x="89.0421" y="-590.3" font-family="Times,serif" font-size="14.00">mark_accepted</text>
</g>
<!-- DataResource&#45;&gt;mark_accepted -->
<g id="edge7" class="edge"><title>DataResource&#45;&gt;mark_accepted</title>
<path fill="none" stroke="black" d="M89.0421,-647.697C89.0421,-639.983 89.0421,-630.712 89.0421,-622.112"/>
<polygon fill="black" stroke="black" points="92.5422,-622.104 89.0421,-612.104 85.5422,-622.104 92.5422,-622.104"/>
</g>
<!-- Accepted -->
<g id="node4" class="node"><title>Accepted</title>
<polygon fill="none" stroke="black" points="125.042,-540 53.0421,-540 53.0421,-504 125.042,-504 125.042,-540"/>
<text text-anchor="middle" x="89.0421" y="-518.3" font-family="Times,serif" font-size="14.00">Accepted</text>
</g>
<!-- load_data_resource -->
<g id="node15" class="node"><title>load_data_resource</title>
<ellipse fill="blue" stroke="blue" cx="89.0421" cy="-450" rx="82.5854" ry="18"/>
<text text-anchor="middle" x="89.0421" y="-446.3" font-family="Times,serif" font-size="14.00">load_data_resource</text>
</g>
<!-- Accepted&#45;&gt;load_data_resource -->
<g id="edge9" class="edge"><title>Accepted&#45;&gt;load_data_resource</title>
<path fill="none" stroke="black" d="M89.0421,-503.697C89.0421,-495.983 89.0421,-486.712 89.0421,-478.112"/>
<polygon fill="black" stroke="black" points="92.5422,-478.104 89.0421,-468.104 85.5422,-478.104 92.5422,-478.104"/>
</g>
<!-- Loaded -->
<g id="node5" class="node"><title>Loaded</title>
<polygon fill="none" stroke="black" points="214.042,-396 154.042,-396 154.042,-360 214.042,-360 214.042,-396"/>
<text text-anchor="middle" x="184.042" y="-374.3" font-family="Times,serif" font-size="14.00">Loaded</text>
</g>
<!-- update -->
<g id="node10" class="node"><title>update</title>
<ellipse fill="red" stroke="red" cx="184.042" cy="-306" rx="35.194" ry="18"/>
<text text-anchor="middle" x="184.042" y="-302.3" font-family="Times,serif" font-size="14.00">update</text>
</g>
<!-- Loaded&#45;&gt;update -->
<g id="edge11" class="edge"><title>Loaded&#45;&gt;update</title>
<path fill="none" stroke="black" d="M184.042,-359.697C184.042,-351.983 184.042,-342.712 184.042,-334.112"/>
<polygon fill="black" stroke="black" points="187.542,-334.104 184.042,-324.104 180.542,-334.104 187.542,-334.104"/>
</g>
<!-- Review -->
<g id="node6" class="node"><title>Review</title>
<polygon fill="none" stroke="black" points="213.542,-180 154.542,-180 154.542,-144 213.542,-144 213.542,-180"/>
<text text-anchor="middle" x="184.042" y="-158.3" font-family="Times,serif" font-size="14.00">Review</text>
</g>
<!-- mark_reviewed_update -->
<g id="node19" class="node"><title>mark_reviewed_update</title>
<ellipse fill="blue" stroke="blue" cx="152.042" cy="-90" rx="96.6831" ry="18"/>
<text text-anchor="middle" x="152.042" y="-86.3" font-family="Times,serif" font-size="14.00">mark_reviewed_update</text>
</g>
<!-- Review&#45;&gt;mark_reviewed_update -->
<g id="edge14" class="edge"><title>Review&#45;&gt;mark_reviewed_update</title>
<path fill="none" stroke="black" d="M176.132,-143.697C172.489,-135.728 168.088,-126.1 164.049,-117.264"/>
<polygon fill="black" stroke="black" points="167.202,-115.744 159.861,-108.104 160.836,-118.654 167.202,-115.744"/>
</g>
<!-- mark_reviewed_noupdate -->
<g id="node20" class="node"><title>mark_reviewed_noupdate</title>
<ellipse fill="blue" stroke="blue" cx="373.042" cy="-90" rx="106.681" ry="18"/>
<text text-anchor="middle" x="373.042" y="-86.3" font-family="Times,serif" font-size="14.00">mark_reviewed_noupdate</text>
</g>
<!-- Review&#45;&gt;mark_reviewed_noupdate -->
<g id="edge17" class="edge"><title>Review&#45;&gt;mark_reviewed_noupdate</title>
<path fill="none" stroke="black" d="M213.573,-150.062C242.328,-139.413 286.636,-123.002 321.257,-110.18"/>
<polygon fill="black" stroke="black" points="322.583,-113.421 330.744,-106.666 320.151,-106.857 322.583,-113.421"/>
</g>
<!-- Reload -->
<g id="node7" class="node"><title>Reload</title>
<polygon fill="none" stroke="black" points="117.542,-36 60.5421,-36 60.5421,-0 117.542,-0 117.542,-36"/>
<text text-anchor="middle" x="89.0421" y="-14.3" font-family="Times,serif" font-size="14.00">Reload</text>
</g>
<!-- Reload&#45;&gt;load_data_resource -->
<g id="edge16" class="edge"><title>Reload&#45;&gt;load_data_resource</title>
<path fill="none" stroke="black" d="M71.5893,-36.169C62.6661,-45.8954 52.3795,-58.7444 46.0421,-72 28.5962,-108.491 27.0421,-120.553 27.0421,-161 27.0421,-307 27.0421,-307 27.0421,-307 27.0421,-350.744 52.0596,-396.212 70.3113,-423.562"/>
<polygon fill="black" stroke="black" points="67.6438,-425.86 76.1957,-432.115 73.4106,-421.892 67.6438,-425.86"/>
</g>
<!-- Rejected -->
<g id="node8" class="node"><title>Rejected</title>
<polygon fill="none" stroke="black" points="295.042,-684 227.042,-684 227.042,-648 295.042,-648 295.042,-684"/>
<text text-anchor="middle" x="261.042" y="-662.3" font-family="Times,serif" font-size="14.00">Rejected</text>
</g>
<!-- generate -->
<g id="node9" class="node"><title>generate</title>
<ellipse fill="red" stroke="red" cx="153.042" cy="-1098" rx="42.4939" ry="18"/>
<text text-anchor="middle" x="153.042" y="-1094.3" font-family="Times,serif" font-size="14.00">generate</text>
</g>
<!-- generate&#45;&gt;New -->
<g id="edge1" class="edge"><title>generate&#45;&gt;New</title>
<path fill="none" stroke="black" d="M153.042,-1079.7C153.042,-1071.98 153.042,-1062.71 153.042,-1054.11"/>
<polygon fill="black" stroke="black" points="156.542,-1054.1 153.042,-1044.1 149.542,-1054.1 156.542,-1054.1"/>
</g>
<!-- mark_updated -->
<g id="node16" class="node"><title>mark_updated</title>
<ellipse fill="none" stroke="black" cx="184.042" cy="-234" rx="63.8893" ry="18"/>
<text text-anchor="middle" x="184.042" y="-230.3" font-family="Times,serif" font-size="14.00">mark_updated</text>
</g>
<!-- update&#45;&gt;mark_updated -->
<g id="edge12" class="edge"><title>update&#45;&gt;mark_updated</title>
<path fill="none" stroke="black" d="M184.042,-287.697C184.042,-279.983 184.042,-270.712 184.042,-262.112"/>
<polygon fill="black" stroke="black" points="187.542,-262.104 184.042,-252.104 180.542,-262.104 187.542,-262.104"/>
</g>
<!-- mark_candidate&#45;&gt;Candidate -->
<g id="edge3" class="edge"><title>mark_candidate&#45;&gt;Candidate</title>
<path fill="none" stroke="black" d="M153.042,-935.697C153.042,-927.983 153.042,-918.712 153.042,-910.112"/>
<polygon fill="black" stroke="black" points="156.542,-910.104 153.042,-900.104 149.542,-910.104 156.542,-910.104"/>
</g>
<!-- create_data_resource -->
<g id="node13" class="node"><title>create_data_resource</title>
<ellipse fill="none" stroke="black" cx="89.0421" cy="-738" rx="89.0842" ry="18"/>
<text text-anchor="middle" x="89.0421" y="-734.3" font-family="Times,serif" font-size="14.00">create_data_resource</text>
</g>
<!-- accept&#45;&gt;create_data_resource -->
<g id="edge5" class="edge"><title>accept&#45;&gt;create_data_resource</title>
<path fill="none" stroke="black" d="M105.717,-792.055C103.267,-784.261 100.3,-774.822 97.5526,-766.079"/>
<polygon fill="black" stroke="black" points="100.809,-764.766 94.4715,-756.275 94.1308,-766.865 100.809,-764.766"/>
</g>
<!-- create_data_resource&#45;&gt;DataResource -->
<g id="edge6" class="edge"><title>create_data_resource&#45;&gt;DataResource</title>
<path fill="none" stroke="black" d="M89.0421,-719.697C89.0421,-711.983 89.0421,-702.712 89.0421,-694.112"/>
<polygon fill="black" stroke="black" points="92.5422,-694.104 89.0421,-684.104 85.5422,-694.104 92.5422,-694.104"/>
</g>
<!-- mark_accepted&#45;&gt;Accepted -->
<g id="edge8" class="edge"><title>mark_accepted&#45;&gt;Accepted</title>
<path fill="none" stroke="black" d="M89.0421,-575.697C89.0421,-567.983 89.0421,-558.712 89.0421,-550.112"/>
<polygon fill="black" stroke="black" points="92.5422,-550.104 89.0421,-540.104 85.5422,-550.104 92.5422,-550.104"/>
</g>
<!-- load_data_resource&#45;&gt;Loaded -->
<g id="edge10" class="edge"><title>load_data_resource&#45;&gt;Loaded</title>
<path fill="none" stroke="black" d="M111.556,-432.411C123.824,-423.371 139.201,-412.041 152.632,-402.144"/>
<polygon fill="black" stroke="black" points="154.724,-404.951 160.698,-396.201 150.571,-399.315 154.724,-404.951"/>
</g>
<!-- mark_updated&#45;&gt;Review -->
<g id="edge13" class="edge"><title>mark_updated&#45;&gt;Review</title>
<path fill="none" stroke="black" d="M184.042,-215.697C184.042,-207.983 184.042,-198.712 184.042,-190.112"/>
<polygon fill="black" stroke="black" points="187.542,-190.104 184.042,-180.104 180.542,-190.104 187.542,-190.104"/>
</g>
<!-- mark_rejected -->
<g id="node18" class="node"><title>mark_rejected</title>
<ellipse fill="none" stroke="black" cx="261.042" cy="-738" rx="64.9885" ry="18"/>
<text text-anchor="middle" x="261.042" y="-734.3" font-family="Times,serif" font-size="14.00">mark_rejected</text>
</g>
<!-- reject&#45;&gt;mark_rejected -->
<g id="edge20" class="edge"><title>reject&#45;&gt;mark_rejected</title>
<path fill="none" stroke="black" d="M244.368,-792.055C246.817,-784.261 249.784,-774.822 252.532,-766.079"/>
<polygon fill="black" stroke="black" points="255.953,-766.865 255.613,-756.275 249.275,-764.766 255.953,-766.865"/>
</g>
<!-- mark_rejected&#45;&gt;Rejected -->
<g id="edge21" class="edge"><title>mark_rejected&#45;&gt;Rejected</title>
<path fill="none" stroke="black" d="M261.042,-719.697C261.042,-711.983 261.042,-702.712 261.042,-694.112"/>
<polygon fill="black" stroke="black" points="264.542,-694.104 261.042,-684.104 257.542,-694.104 264.542,-694.104"/>
</g>
<!-- mark_reviewed_update&#45;&gt;Reload -->
<g id="edge15" class="edge"><title>mark_reviewed_update&#45;&gt;Reload</title>
<path fill="none" stroke="black" d="M136.792,-72.055C129.167,-63.5832 119.793,-53.1679 111.376,-43.8154"/>
<polygon fill="black" stroke="black" points="113.881,-41.3669 104.59,-36.2753 108.678,-46.0497 113.881,-41.3669"/>
</g>
<!-- mark_reviewed_noupdate&#45;&gt;Loaded -->
<g id="edge18" class="edge"><title>mark_reviewed_noupdate&#45;&gt;Loaded</title>
<path fill="none" stroke="black" d="M363.43,-108.18C341.213,-147.48 283.918,-246.518 228.042,-324 221.257,-333.409 213.297,-343.297 206.026,-351.95"/>
<polygon fill="black" stroke="black" points="203.148,-349.93 199.327,-359.812 208.477,-354.47 203.148,-349.93"/>
</g>
</g>
</svg>
